<svg xmlns="http://www.w3.org/2000/svg">
    <symbol viewBox="0 0 18 15" id="i-twitter">
      <path d="M11.6.2c1.8-.5 3.2.3 3.8 1.2l2.1-.7c0 .9-.6 1.5-.9
                  1.8.7.1 1.4-.6 1.4-.6a3 3 0 0 1-1.7 2C16.1 10.7 13 15.1 5.7
                  15h-.5c-.4 0-4.4-.5-5.2-1.9 2.4.2 4.1-.4
                  5-1.2-1-.3-2.9-.4-3.2-2.9.4.1.6.2 1.3.1C1.8 8.3.4 7.5.5
                  5.3c.3.3 1.1.5 1.4.5C1.1 5.6-.2 2.5.9.9a11 11 0 0 0 7.6 3.8C8.7
                  2.3 9.7.8 11.6.2z" fill="white"/>
    </symbol>
    <symbol viewBox="0 0 10 18" id="i-facebook">
      <path d="M7 0a4 4 0 0 0-4 4v2H0v4h3v8h4v-8h3V6H7V4h3V0H7z" fill="white"/>
    </symbol>
    <symbol viewBox="0 0 20 16" id="i-youtube">
      <path d="M17 0H2.9C1.2 0 0 1.5 0 3.2v9.5C0 14.5 1.2 16 2.9 16h14.3c1.5
                0 2.9-1.5 2.9-3.2V3.2C19.9 1.5 18.7 0 17 0zM7 11.8V4.2L13.7 8 7 11.8z" fill="white"/>
    </symbol>
    <symbol viewBox="0 0 27 35" id="i-logo">
      <path d="M14 0h-1L1 1v25l14 8 13-8V1L14 0zm11 12L14 5h-1L2 12V3l11-1
              12 1v9zM13 7l12 7-5 2-7-4v1l6 4h-1l-5-3v2l4 2-1 1-3-2v1l2 1-2 1-11-6 11-7zM2
              15l11 7v1l-8-5v2l8 4v2l-8-5v1l8 5 9-5v-5l3-2v10l-12 7-11-7V15z" fill="currentColor"/>
    </symbol>
    <symbol viewBox="0 0 23 21" id="i-like">
      <path d="M13 4l-1 3v2h9v3l-3 7H8V8l5-4zM2 11v8-8zM14 0L7 7 6 8v11l2 2h10l2-1 3-8V9l-2-2h-7l1-4V2 1l-1-1zM4 8H0v13h4V8z"/>

    </symbol>
  </svg>
