<svg width="76" height="68" viewBox="0 0 76 68" fill="none" xmlns="http://www.w3.org/2000/svg"><path d="M71.7 45.3H4.3c-2.4 0-4.3 2-4.3 4.3V53c0 2.3 1.9 4.2 4.3 4.2h1v1c0 5.4 4.5 9.7 9.9 9.7h45.6c5.5 0 10-4.4 10-9.8v-1h1c2.2 0 4.2-1.8 4.2-4.2v-3.4c0-2.2-1.9-4.2-4.3-4.2zm-3.9 12.8c0 3.8-3 6.8-6.9 6.8H15.1c-3.8 0-7-3-7-6.8v-1h59.7v1zM73 53c0 .7-.6 1.3-1.3 1.3H4.3c-.7 0-1.3-.6-1.3-1.3v-3.4c0-.6.6-1.2 1.3-1.2h67.5c.7 0 1.3.6 1.3 1.3v3.3zM16.2 37.3l5.3 4 5.5-4 5.5 4 5.5-4 5.4 4 5.5-4 5.5 4 5.4-4 5.5 4 6.3-4.6-1.7-2.4-4.6 3.2-5.5-3.9-5.4 4-5.5-4-5.5 4-5.4-4-5.5 4-5.5-4-5.5 4-5.3-4-5.5 4L6 34.2l-1.8 2.4 6.4 4.6 5.5-4zM70.7 30.6v-3C70 12.4 55.7 0 38 0 20.3 0 5.9 12.3 5.2 27.7v3h65.5zM38 3c16 0 29.1 11 29.7 24.7H8.2C8.9 14 22 3 38 3z" fill="#81B3D2"/><path d="M38 16.8a2 2 0 0 0 2-2c0-1.1-.9-2-2-2a2 2 0 0 0-2 2c0 1 .9 2 2 2zM30 12a2 2 0 0 0 2-2c0-1.1-.9-2-2-2a2 2 0 0 0-2 2c0 1 1 2 2 2zM46 12a2 2 0 0 0 2-2c0-1.1-1-2-2-2a2 2 0 0 0-2 2c0 1 .9 2 2 2z" fill="#81B3D2"/></svg>