<svg width="75" height="72" viewBox="0 0 75 72" fill="none" xmlns="http://www.w3.org/2000/svg"><path d="M29.6 65h16V41.1h-16v23.7zm13.2-3H32.5V44h10.2v18z" fill="#81B3D2"/><path d="M72.9 39.2L75 37l-10-9.9V.4H51.3v13.1L37.4 0 0 37.2l2.1 2 7.8-7.7v37.6H6V72h64.2v-2.9H65V31.4l7.8 7.8zM54 3.4h8v21l-8-7.9V3.4zm8 65.6H13V28.5L37.4 4.2 62 28.5V69h.1z" fill="#81B3D2"/><path d="M30 27a7.8 7.8 0 0 0 15.5 0c0-4.2-3.5-7.6-7.8-7.6a7.6 7.6 0 0 0-7.8 7.6zm7.7-5a5 5 0 0 1 5 5 5 5 0 0 1-10 0 5 5 0 0 1 5-5zM20 41.2h-3V45h3v-3.8zM25.9 41.2h-3V45h3v-3.8zM20 47.1h-3v4h3v-4zM25.9 47.1h-3v4h3v-4zM52 41.2h-3V45h3v-3.8zM58 41.2h-3V45h3v-3.8zM52 47.1h-3v4h3v-4zM58 47.1h-3v4h3v-4z" fill="#81B3D2"/></svg>