<svg width="23" height="23" viewBox="0 0 23 23" fill="none" xmlns="http://www.w3.org/2000/svg"><path fill="#E7E5E5" d="M0 0h23v23H0z"/><g clip-path="url(#clip0_72_100)"><path fill="#fff" d="M-278-17H42v3383h-320z"/><path fill="#fff" d="M-278-17H42v56h-320z"/><path d="M22 0H-1v4h23V0zM22 9H-1v4h23V9zM22 18H-1v4h23v-4z" fill="#81B3D2"/><path fill="#81B3D2" d="M-278 13H42v193h-320z"/><g filter="url(#filter0_d_72_100)"><path fill="#81B3D2" d="M-278-17H42v55h-320z"/></g><path d="M22 3l-3-3-8 8-8-8-3 3 8 8-8 8 3 3 8-8 8 8 3-3-8-8 8-8z" fill="#fff"/></g><defs><clipPath id="clip0_72_100"><path fill="#fff" transform="translate(-278 -17)" d="M0 0h320v666H0z"/></clipPath><filter id="filter0_d_72_100" x="-278" y="-17" width="320" height="56" filterUnits="userSpaceOnUse" color-interpolation-filters="sRGB"><feFlood flood-opacity="0" result="BackgroundImageFix"/><feColorMatrix in="SourceAlpha" values="0 0 0 0 0 0 0 0 0 0 0 0 0 0 0 0 0 0 127 0" result="hardAlpha"/><feOffset dy="1"/><feColorMatrix values="0 0 0 0 0.00392157 0 0 0 0 0.00392157 0 0 0 0 0.00392157 0 0 0 0.2 0"/><feBlend in2="BackgroundImageFix" result="effect1_dropShadow_72_100"/><feBlend in="SourceGraphic" in2="effect1_dropShadow_72_100" result="shape"/></filter></defs></svg>