<svg width="282" height="49" viewBox="0 0 282 49" fill="none" xmlns="http://www.w3.org/2000/svg"><path d="M27.2 13.4c-2.2-1.9-5-3-8-3-2.1 0-5 1.2-5 3.8 0 2.7 3.2 3.7 5.3 4.3l3 1C29 21.2 34 24.4 34 31.8c0 4.5-1.1 9.2-4.7 12.3a20 20 0 0 1-13 4.3c-5.8 0-11.5-2-16.2-5.2l5-9.5c3 2.6 6.5 4.7 10.6 4.7 2.8 0 5.8-1.4 5.8-4.6 0-3.3-4.7-4.4-7.3-5.2-7.5-2.2-12.4-4-12.4-13C1.7 6.6 8.3.5 17.6.5 22.2.4 27.9 2 31.9 4.2l-4.7 9.2zM56.2 11.7v7.6h13.5v10H56.2v8h14.3v10H44.3V1.7h26.2v10.1H56.2zM79.3 1.6h17a23 23 0 0 1 23.3 22.9 23 23 0 0 1-23.4 22.9h-17V1.6zm12 35.7H94c7 0 13.2-4 13.2-12.8 0-8.2-5.4-12.8-13.1-12.8h-2.8v25.6zM176 23.6A24.4 24.4 0 0 1 150.5 49a24.4 24.4 0 0 1-25.4-25.3C125.1 9.8 137.3.1 150.5.1S176 9.8 176 23.6zm-38.5.1c0 7.9 5.9 13.6 13 13.6s13-5.7 13-13.6c0-6.3-5.9-12.1-13-12.1-7 0-13 5.8-13 12.1zM182.3 1.6h12l21.8 28h.1v-28h12v45.8h-12l-21.8-28.1h-.2v28h-12V1.7zM249.8 39.4l-3.2 8H234l17.7-45.8h13L282 47.4h-12.7l-3-8h-16.5zm8.4-23.6h-.1l-5 14.5h10l-5-14.5z" fill="#fff"/></svg>