<svg width="181" height="49" viewBox="0 0 181 49" fill="none" xmlns="http://www.w3.org/2000/svg"><path d="M21 11c5-2 5-7 1-7-2 0-3 0-4 2l-6 11-1 1c-2-2-2-5 1-7l-1-1c-5 3-4 12 4 12s11-8 6-11zm-6 10l-3-1 1-2 4-7h1c5 1 3 10-2 10zm3-11l2-3c2-3 4-2 3 1l-5 2z" fill="#fff"/><path d="M41 18c0 2 0 3 2 3l3-2 2 2 4-2 1 2 4-2 2 2c2 0 4-2 6-4l3-5c0 3 0 7-2 7l-1-1-2 1s1 2 3 2h1a10 10 0 0 0 4-3c1 2 2 3 4 3l7-4-1-1-6 3c-1 0-2-1-1-2v-1c2 1 5 1 6-2l1-1c1-2 0-4-2-4s-4 1-5 3l-2 4-3 3 2-9-1-1-6 7-4 4v-2l5-8h-3l-4 7-3 2v-1l4-8h-2l-3 6h-1l-4 4-1-2 4-6h-1c0-1-1-3-3-3l-3 3-3 4-6 3c-1 0-2-1-1-2l2-5c1-2 4-1 2 1v1h2v-1c2-2 0-4-1-4-2 0-4 1-5 3l-2 4c-2 2-4 4-6 4-1 0-2-1-1-3v-1c2 1 4 1 6-2l1-1c1-2 0-4-2-4s-4 1-5 3l-2 4c-2 3 0 5 2 5s5-1 6-3c0 2 1 3 3 3l6-3zm36-5c1-3 3-2 2 0l-1 1c0 2-2 1-3 1l2-2zm-34 5l3-5c2-3 4-2 3 0l-2 3-3 3-1-1zm-15-5c2-3 4-2 3 0l-1 1c-1 2-2 1-3 1l1-2zm79 8c3 0 6-2 8-4l-1-1-6 3c-1 0-2 0-1-2v-1c2 1 4 1 6-2v-1c2-2 0-4-1-4-2 0-4 1-5 3l-2 4-5 3v-1l4-6c1-1 0-3-2-3l-3 2 4-6h-3l-6 11h-1l-4 4v-2l5-8h2V9h-2l3-4h-3l-2 3h-2l-1 2h2l-4 8c-1 1-1 3 1 3l4-2-1 2h2l4-6c4-5 5-4 4-3l-3 6c-1 1 0 3 2 3l4-3c0 2 1 3 3 3zm2-8c2-3 4-2 3 0l-1 1c-1 2-2 1-3 1l1-2zm69 3l-5 4v-2l8-13h-2l-4 6a3 3 0 0 0-2-2l-4 3-2 4h-1l-4 4v-2l3-6c1-1 0-3-1-3l-3 2 1-1h-3l-3 6h-1l-4 4v-2l3-6h-1l-2-3c-2 0-3 1-4 3l-3 4-4 4v-2l2-4v-3l-2-1V8l-1-1v4l-4 5a15 15 0 0 1-5 4l3-5h-3v1l-4 4c-2 0-2-2-1-4l1-2h1c8 0 12-11 5-11l-4 3-3 6c-2 0-3-2-3-3l2-3-1-1a5 5 0 0 0-2 4c0 2 1 4 3 5l-1 1c-2 3-1 6 2 6l3-1-1 1c-3 1-5 2-5 4s3 3 5 0l2-3 7-6 4-5v2l-2 5c-1 1-1 3 1 3l4-2 2 2 3-2 2 2 4-2-1 2h2l4-7c3-4 5-3 4-2l-3 5c-1 2 0 4 1 4l4-2 2 2 4-2c0 1 0 2 2 2s4-2 6-4l-1-1zm-48-9l2-1c4 0 1 7-5 7l3-6zm-5 18h-1l2-2-1 2zm25-9l-4 4v-2l3-5c1-3 4-2 2 0l-1 3zm22 0l-4 4v-2l3-5c1-3 4-2 3 0l-2 3zm-72 22l-4 4-1-2 4-6c1-1 0-3-2-3l-3 2 1-1h-2l-4 6a5 5 0 0 1-4 2l2-4c2-2 0-5-2-5s-3 1-4 3l-1 2-1 2h-1a15 15 0 0 1-5 4l6-11h-2l-4 8-4 2v-2l5-8h-3l-3 7h-1l-4 4v-2l3-6c1-1 0-3-1-3l-3 2 1-1h-3l-3 6h-1l-4 4-1-2 4-6h-1l-2-3c-2 0-3 1-4 3l-3 4h-1c-1 2-3 4-6 4-1 0-2-2-1-4l1-2 1 1c3 0 5-2 7-5l1-3c0-2-1-3-3-3-1 0-3 0-4 2l-3 6c-2 0-2-2-2-3l1-3-1-1a5 5 0 0 0-2 4c0 2 1 4 3 5l-1 1c-1 3-1 6 3 6l6-3c-1 2 0 3 2 3l3-2 2 2 4-2-1 2h2l4-6c3-5 5-4 4-3l-3 6c-1 1 0 3 1 3l4-2 2 2 3-2-1 2c-3 1-5 2-5 4s3 3 5 0l2-3a15 15 0 0 0 6-4c-1 3 4 4 6 1h1l3-1-2 3h3l3-7c4-4 5-3 4-2l-3 6c-1 1 0 3 2 3s4-2 6-4l-1-1zm-58-9l2-2 2 2c0 2-3 6-7 6l3-6zm8 9l-3 4-1-2 4-5c1-2 3-2 2 0l-2 3zm18 9h-1l2-2-1 2zm16-9l-2 1 1 1c-2 2-4 2-3-1l2-3 1-2c2-2 4-1 2 1l-1 3zm70 1l-1-1-3 3 2-9-2-1c0 2-2 4-5 7l-4 4-1-2v-1c2 0 3-1 4-3l1-1c2-4-1-5-4-3l4-5h-3l-6 11h-1l-5 4c-2 0-3-1-2-3l3-4c1-3 3-2 2 0v1h2v-1c1-2 0-4-2-4s-3 1-4 3l-3 4-4 4v-2l5-8h-3l-4 7-4 2 1-1 4-8h-2l-5 7-1 2 2-9-2-1-8 11 1 1 6-8c-1 2 0 6-2 6l-1-1-2 1s0 2 3 2a8 8 0 0 0 4-1l1 1 4-2 2 2c2 0 3-1 5-3 0 2 1 3 3 3l5-2-1 2h2l3-5v2c0 2 0 3 2 3s4-2 6-4l4-4c-1 2-1 6-3 6l-1-1-2 1s1 2 3 2h1c2 0 4-2 6-4zm-15-2v-1c3-4 5-3 4-2l-1 2c-1 2-3 2-3 1zm15 3a1 1 0 1 0 0 3l1-1-1-2zm0-1h2l8-12h-2l-8 12zM4 5v1H2 1V4 3l1-1V1h1V0l1 2H3v1l1 1v1zm5 0v1H6V5a3 3 0 0 1 0-1V3l1-1V1h1V0l1 2H8v1a1 1 0 0 0-1 0l1 1 1 1zm163 36v-1l1-1h1l1 1v3a3 3 0 0 1-1 1 3 3 0 0 1-1 1h-1v-2h1v-1h-1v-1zm-5 0v-1l1-1h1l1 1 1 1-1 2a3 3 0 0 1-1 1l-1 1c-1 0 0 0 0 0l-1-1v-1h1v-1h-1v-1z" fill="#fff"/></svg>