<svg width="258" height="85" viewBox="0 0 258 85" fill="none" xmlns="http://www.w3.org/2000/svg">
<path d="M64.7392 69.9996L64.5385 70.1996C63.134 71.6996 61.5288 72.3996 60.0239 72.3996L62.833 67.4996C64.6389 64.3996 62.9333 61.3996 60.1242 61.3996C57.8167 61.3996 56.0108 62.2996 54.3052 65.2996L52.8004 67.8996L51.5964 69.9996L51.3958 70.1996C49.1886 72.6996 47.0817 74.6996 45.7775 74.6996C45.0752 74.6996 44.7742 74.1996 45.4765 73.0996L51.8974 61.8996H54.3052L55.2082 60.4996H52.7L55.5092 55.5996H52.4994L49.6902 60.4996H46.9814L46.0785 61.8996H48.7873L42.7677 72.2996C41.4635 74.4996 42.3664 76.5996 44.7742 76.5996C46.4798 76.5996 48.4863 75.2996 50.2922 73.4996C50.2922 77.2996 55.6095 78.0996 58.8199 73.9996H59.5222C61.3281 73.9996 64.1372 72.8996 65.6421 71.0996C65.6421 70.5996 65.1405 70.1996 64.7392 69.9996ZM58.3183 70.1996H58.218C57.2147 70.1996 56.4121 70.9996 56.4121 71.9996C56.4121 72.3996 56.5124 72.6996 56.7131 72.9996V73.0996C55.3085 75.4996 51.8974 75.0996 53.603 71.8996L55.9105 67.9996L57.315 65.5996C59.4219 61.9996 62.3314 63.3996 60.5255 66.4996L58.3183 70.1996Z" fill="#766458"/>
<path d="M106.375 69.9996L106.174 70.1996C103.967 72.6996 101.258 74.6996 99.1513 74.6996C97.3454 74.6996 96.2418 73.4996 97.5461 71.0996L97.847 70.5996C99.7532 71.3996 103.465 70.9996 105.672 67.0996L106.074 66.3996C107.679 63.5996 106.174 61.5996 103.666 61.5996C101.258 61.5996 99.3519 62.8996 98.0477 65.0996L95.1382 70.0996L94.9376 70.2996C92.7304 72.7996 90.6235 74.7996 89.3193 74.7996C88.617 74.7996 88.316 74.2996 89.0183 73.1996L93.3323 65.5996C94.6366 63.2996 93.4327 61.6996 91.7271 61.6996C90.4229 61.6996 89.0183 62.3996 87.5134 63.9996L92.3291 55.6996H89.3193L80.9922 69.9996L80.7915 70.1996C78.5843 72.6996 76.4775 74.6996 75.1733 74.6996C74.471 74.6996 74.17 74.1996 74.8723 73.0996L81.2932 61.8996H83.701L84.6039 60.4996H82.0958L84.9049 55.5996H81.8951L79.086 60.4996H76.3772L75.4742 61.8996H78.183L72.1635 72.2996C70.8592 74.4996 71.7622 76.5996 74.17 76.5996C75.3739 76.5996 76.6782 75.9996 77.9824 74.9996L77.1798 76.2996H80.1896L84.7043 68.3996C89.3193 62.5996 91.3258 63.3996 90.1219 65.5996L86.2092 72.3996C84.9049 74.5996 85.8079 76.6996 88.2157 76.6996C90.0216 76.6996 92.0281 75.2996 93.834 73.4996C93.9343 75.3996 95.5395 76.6996 97.9474 76.6996C101.358 76.6996 104.77 74.0996 107.177 71.1996C107.278 70.5996 106.776 70.1996 106.375 69.9996ZM100.656 65.7996C102.362 62.7996 105.472 63.2996 103.666 66.3996L103.265 67.0996C101.86 69.4996 99.8536 69.4996 98.75 69.0996L100.656 65.7996Z" fill="#766458"/>
<path d="M215.831 70L215.63 70.2C214.527 71.5 213.222 72.6 212.018 73.5C213.022 70.6 212.721 66.3 214.627 62.4L212.42 61.2C211.216 62.9 208.507 66.8 205.698 70L205.497 70.2C203.29 72.7 201.183 74.7 199.879 74.7C199.177 74.7 198.876 74.2 199.578 73.1L205.999 61.9H202.989L197.672 71.2C195.364 73.3 193.659 74.4 193.057 74.2C192.354 73.9 193.057 72.8 193.458 72.1L199.277 61.9H196.267L191.552 70L191.351 70.2C189.947 71.7 188.341 72.4 186.836 72.4L189.646 67.5C191.451 64.4 189.746 61.4 186.937 61.4C184.629 61.4 182.823 62.3 181.118 65.3L179.613 67.9L178.409 70L178.208 70.2C176.001 72.7 173.292 74.7 171.185 74.7C169.38 74.7 168.276 73.5 169.58 71.1L169.881 70.6C171.787 71.4 175.5 71 177.707 67.1L178.108 66.4C179.713 63.6 178.208 61.6 175.7 61.6C173.292 61.6 171.386 62.9 170.082 65.1L167.172 70.1L166.972 70.3C164.464 73.2 162.357 75 159.949 76L166.671 64.5H164.865C164.865 63.3 163.561 61.6 161.755 61.6C160.15 61.6 157.842 62.9 156.638 65.1L153.729 70.1L153.528 70.3C151.321 72.8 149.214 74.8 147.91 74.8C147.207 74.8 146.906 74.3 147.609 73.2L150.619 68C151.622 66.2 151.12 65.1 150.217 63.9L148.512 61.9C148.11 61.4 148.11 60.7 148.712 60.2L147.107 58.5C145.402 60 145.301 61.7 146.305 63.1L146.606 63.4C145.301 65.3 143.495 67.8 141.489 70.1L141.288 70.3C139.884 71.8 138.278 72.5 136.774 72.5L139.583 67.6C141.389 64.5 139.683 61.5 136.874 61.5C134.566 61.5 132.76 62.4 131.055 65.4L129.55 68L128.346 70.1L128.145 70.3C125.637 73.2 123.53 75 121.123 76L127.844 64.5H126.039C126.039 63.3 124.734 61.6 122.928 61.6C121.323 61.6 119.016 62.9 117.812 65.1L113.598 72.4C112.294 74.6 113.197 76.7 115.605 76.7C116.407 76.7 117.411 76.3 118.514 75.7L117.712 77.1C113.698 78.3 111.09 80 111.09 82.2C111.09 85.1 115.504 85.7 117.712 82L120.019 78.1C122.427 77.4 124.734 75.9 127.243 73.6C127.243 77.4 132.56 78.2 135.77 74.1H136.473C138.278 74.1 141.088 73 142.592 71.2C143.997 69.5 145.201 68 147.609 64.8L148.01 65.3C148.411 65.8 148.512 66.4 148.211 67L145 72.5C143.696 74.7 144.599 76.8 147.007 76.8C148.512 76.8 150.217 75.8 151.822 74.4C151.822 75.8 152.725 76.8 154.431 76.8C155.234 76.8 156.237 76.4 157.34 75.8L156.638 77C152.625 78.2 150.017 79.9 150.017 82.1C150.017 85 154.431 85.6 156.638 81.9L158.946 78C161.353 77.2 163.761 75.8 166.27 73.4C166.37 75.3 167.875 76.6 170.383 76.6C172.791 76.6 175.299 75.2 177.305 73.4C177.205 77.3 182.623 78.1 185.833 74H186.535C187.438 74 188.743 73.7 189.846 73.1C189.044 75.2 189.746 76.6 191.451 76.6C193.057 76.6 194.963 75.1 196.367 73.7C196.066 75.3 197.07 76.6 198.976 76.6C201.484 76.6 204.293 74 206.801 71.1C208.507 69.1 210.012 67 211.115 65.6C209.911 68.7 210.614 74.3 207.704 74.3C206.701 74.3 206.3 73.2 206.3 73.2L204.394 74.2C204.394 74.2 204.895 76.6 207.704 76.6C208.005 76.6 208.206 76.6 208.507 76.5H208.607C211.717 76.1 214.727 73.7 216.934 71.1C216.834 70.6 216.332 70.1 215.831 70ZM172.791 65.8C174.496 62.8 177.606 63.3 175.801 66.4L175.399 67.1C173.995 69.5 171.988 69.5 170.885 69.1L172.791 65.8ZM115.404 81.4C114.802 82.5 113.799 82.4 113.799 81.5C113.799 80.7 114.501 79.8 116.809 78.9L115.404 81.4ZM116.809 74.7C116.106 74.7 115.805 74.2 116.508 73.1L120.721 65.8C122.327 63 125.537 63.7 124.032 66.4L121.725 70.4C119.919 73.3 118.012 74.7 116.809 74.7ZM135.269 70.2H135.168C134.165 70.2 133.362 71 133.362 72C133.362 72.4 133.463 72.7 133.663 73V73.1C132.259 75.5 128.848 75.1 130.553 71.9L132.861 68L134.265 65.6C136.372 62 139.282 63.4 137.476 66.5L135.269 70.2ZM154.13 81.4C153.528 82.5 152.525 82.4 152.525 81.5C152.525 80.7 153.227 79.8 155.535 78.9L154.13 81.4ZM155.535 74.7C154.832 74.7 154.531 74.2 155.234 73.1L159.447 65.8C161.053 63 164.263 63.7 162.758 66.4L160.451 70.4C158.645 73.3 156.738 74.7 155.535 74.7ZM185.131 70.2H185.031C184.027 70.2 183.225 71 183.225 72C183.225 72.4 183.325 72.7 183.526 73V73.1C182.121 75.5 178.71 75.1 180.416 71.9L182.723 68L184.128 65.6C186.234 62 189.144 63.4 187.338 66.5L185.131 70.2Z" fill="#766458"/>
<path d="M29.5247 66.7998H0.530334V68.7998H29.5247V66.7998Z" fill="#766458"/>
<path d="M257.266 66.7998H228.271V68.7998H257.266V66.7998Z" fill="#766458"/>
<path d="M62.5321 0H70.2573L69.0533 44.9H54.506L52.4995 26.4L50.4929 44.9H35.8453L34.7417 0H42.3665L42.9685 37.2H43.7711L48.6871 0H56.3119L61.2279 37.2H62.0305L62.5321 0Z" fill="#81B3D3"/>
<path d="M94.4359 37.2V45H73.4677V0H94.4359V7.7H81.0925V18.5H91.7271V26.2H81.0925V37.1H94.4359V37.2Z" fill="#81B3D3"/>
<path d="M115.906 37.2V45H97.546V0H105.171V37.2H115.906Z" fill="#81B3D3"/>
<path d="M132.159 28.4L139.884 26.6V40.2C139.884 42.8 137.677 44.9 135.169 44.9H123.631C121.023 44.9 118.916 42.7 118.916 40.2V4.7C118.916 2.1 121.023 0 123.631 0H135.169C137.677 0 139.884 2.1 139.884 4.7V13.8L132.159 15.6V7.6H126.641V37.1H132.159V28.4Z" fill="#81B3D3"/>
<path d="M160.752 0C163.26 0 165.467 2.1 165.467 4.7V40.1C165.467 42.7 163.26 44.8 160.752 44.8H149.214C146.606 44.8 144.499 42.6 144.499 40.1V4.7C144.499 2.1 146.606 0 149.214 0H160.752ZM157.742 7.7H152.224V37.2H157.742V7.7Z" fill="#81B3D3"/>
<path d="M190.549 0H198.173V44.9H190.549V22.8L187.439 34.2H179.914L176.904 22.8V44.9H169.279V0H176.904L183.726 21.7L190.549 0Z" fill="#81B3D3"/>
<path d="M222.954 37.2V45H201.986V0H222.954V7.7H209.611V18.5H220.245V26.2H209.611V37.1H222.954V37.2Z" fill="#81B3D3"/>
</svg>
