<svg width="158" height="52" viewBox="0 0 158 52" fill="none" xmlns="http://www.w3.org/2000/svg"><path d="M39.4 42.8l-.1.1c-.9 1-1.9 1.4-2.8 1.4l1.7-3c1.1-2 0-3.8-1.6-3.8-1.4 0-2.6.6-3.6 2.4l-1 1.6-.7 1.3v.1c-1.4 1.6-2.7 2.8-3.5 2.8-.4 0-.6-.3-.2-1l4-6.8H33l.6-.9H32l1.7-3H32l-1.7 3h-1.7l-.5.9h1.6L26 44.2c-.8 1.4-.2 2.6 1.3 2.6 1 0 2.2-.8 3.3-1.9 0 2.4 3.3 2.9 5.3.4h.4c1.1 0 2.8-.7 3.7-1.8 0-.3-.3-.6-.5-.7zm-4 .1a1.1 1.1 0 0 0-1 1.7v.1c-.8 1.5-2.9 1.2-1.8-.7l1.4-2.4.8-1.5c1.3-2.2 3.1-1.3 2 .6l-1.3 2.2zM64.9 42.8l-.2.1c-1.3 1.6-3 2.8-4.3 2.8-1 0-1.7-.8-1-2.2l.2-.3c1.2.5 3.5.2 4.8-2.2l.3-.4c1-1.7 0-3-1.5-3s-2.6.9-3.4 2.2l-1.8 3-.1.2c-1.4 1.5-2.7 2.7-3.5 2.7-.4 0-.6-.3-.2-1l2.7-4.6c.8-1.4 0-2.4-1-2.4-.8 0-1.7.5-2.6 1.4l3-5h-1.9l-5 8.7-.2.1c-1.3 1.6-2.6 2.8-3.4 2.8-.5 0-.6-.3-.2-1l4-6.8H51l.5-1H50l1.7-2.9H50l-1.7 3h-1.7l-.5.9h1.6L44 44.2c-.8 1.4-.2 2.6 1.3 2.6a4 4 0 0 0 2.3-1l-.5.9h1.8l2.8-4.9c2.8-3.5 4-3 3.3-1.7l-2.4 4.2c-.8 1.3-.2 2.6 1.2 2.6 1.2 0 2.4-.9 3.5-2 0 1.2 1 2 2.5 2 2 0 4.2-1.6 5.6-3.4.1-.3-.2-.6-.4-.7zm-3.5-2.6c1-1.8 2.9-1.5 1.8.4l-.2.4c-1 1.5-2.1 1.5-2.8 1.3l1.2-2zM131.8 42.8l-.1.1c-.7.8-1.5 1.5-2.2 2 .6-1.7.4-4.4 1.6-6.7l-1.4-.8-4 5.4-.2.1c-1.4 1.6-2.7 2.8-3.4 2.8-.5 0-.7-.3-.2-1l3.9-6.8H124l-3.3 5.6c-1.4 1.3-2.5 2-2.8 1.9-.5-.2 0-.9.2-1.3l3.6-6.2h-1.9l-2.8 4.9-.2.1c-.8 1-1.8 1.4-2.7 1.4l1.7-3c1.1-2 0-3.8-1.7-3.8-1.4 0-2.5.6-3.5 2.4l-1 1.6-.7 1.3-.1.1c-1.4 1.6-3 2.8-4.3 2.8-1.1 0-1.8-.8-1-2.2l.2-.3c1.2.5 3.4.2 4.8-2.2l.2-.4c1-1.7.1-3-1.4-3s-2.7.9-3.5 2.2l-1.8 3v.2a11.8 11.8 0 0 1-4.4 3.5l4.1-7h-1c0-.8-.9-1.8-2-1.8-1 0-2.4.8-3.1 2.1l-1.8 3-.1.2c-1.4 1.5-2.6 2.7-3.4 2.7-.5 0-.7-.3-.2-1l1.8-3.1c.6-1.1.3-1.8-.2-2.5l-1-1.2c-.3-.4-.3-.8 0-1l-1-1.1c-1 .9-1 2-.4 2.8l.2.2c-.8 1.1-2 2.7-3.2 4v.2c-1 1-2 1.3-2.9 1.3l1.8-3c1-1.9 0-3.7-1.7-3.7-1.4 0-2.5.6-3.5 2.4l-1 1.6-.7 1.3h-.1a11.8 11.8 0 0 1-4.3 3.6l4-7h-1c0-.8-.8-1.8-2-1.8-.9 0-2.3.8-3 2.1l-2.6 4.5c-.8 1.3-.3 2.6 1.2 2.6.5 0 1.1-.2 1.8-.6l-.5.8c-2.5.8-4 1.8-4 3.2 0 1.7 2.6 2.1 4-.2l1.4-2.3c1.5-.5 2.9-1.4 4.4-2.8 0 2.3 3.3 2.8 5.2.3h.5c1 0 2.8-.7 3.7-1.8.9-1 1.6-2 3-3.9l.3.3c.3.3.3.7.1 1l-2 3.4c-.7 1.4-.2 2.7 1.3 2.7 1 0 2-.6 3-1.5 0 .9.5 1.5 1.6 1.5.4 0 1-.3 1.7-.6l-.4.7c-2.5.7-4 1.8-4 3.1 0 1.8 2.7 2.1 4-.1l1.4-2.4c1.5-.5 3-1.3 4.5-2.8 0 1.1 1 2 2.5 2s3-1 4.2-2c0 2.4 3.3 2.9 5.3.4h.4c.5 0 1.3-.2 2-.6-.5 1.3 0 2.1 1 2.1s2.1-.9 3-1.7c-.2 1 .4 1.7 1.6 1.7 1.5 0 3.3-1.5 4.8-3.3l2.6-3.4c-.7 2-.3 5.3-2 5.3-.7 0-1-.6-1-.6l-1 .6a2 2 0 0 0 2 1.4h.4c2-.3 3.8-1.7 5.2-3.3a1 1 0 0 0-.7-.7zm-26.3-2.6c1-1.8 3-1.5 1.8.4l-.2.4c-.9 1.5-2.1 1.5-2.8 1.3l1.2-2zm-35.1 9.6c-.4.6-1 .6-1 0 0-.5.4-1 1.8-1.6l-.8 1.6zm.8-4.1c-.4 0-.6-.3-.1-1l2.5-4.5c1-1.7 3-1.2 2 .4L74.3 43c-1 1.8-2.2 2.7-3 2.7zm11.3-2.8a1.1 1.1 0 0 0-1 1.7v.1c-.8 1.5-2.9 1.2-1.9-.7l1.5-2.4.8-1.5c1.3-2.2 3-1.3 2 .6l-1.4 2.2zm11.6 6.9c-.4.6-1 .6-1 0 0-.5.4-1 1.8-1.6l-.8 1.6zm.8-4.1c-.4 0-.6-.3-.2-1l2.6-4.5c1-1.7 3-1.2 2 .4L98 43c-1 1.8-2.2 2.7-3 2.7zm18.1-2.8a1.1 1.1 0 0 0-1 1.7v.1c-.8 1.5-2.9 1.2-1.9-.7l1.5-2.4.8-1.5c1.3-2.2 3-1.3 2 .6l-1.4 2.2zM157.2 40.8h-17.8v1.3h17.8v-1.3zM17.8 40.8H.1v1.3h17.7v-1.3z" fill="#766458"/><path d="M38 0h4.8L42 27.5h-8.9L32 16l-1.2 11.4h-9L21 0h4.7l.4 22.7h.5l3-22.7h4.6l3 22.7h.5L38 0zM57.6 22.7v4.8H44.7V0h12.9v4.7h-8.2v6.6h6.5V16h-6.5v6.7h8.2zM70.7 22.7v4.8H59.5V0H64v22.7h6.6zM80.6 17.4l4.8-1.1v8.3a3 3 0 0 1-3 2.9h-7a3 3 0 0 1-2.9-3V3c0-1.6 1.3-2.9 3-2.9h7a3 3 0 0 1 2.9 2.9v5.5l-4.8 1.1V4.6h-3.3v18h3.3v-5.2zM98.1 0a3 3 0 0 1 2.9 2.9v21.6a3 3 0 0 1-2.9 2.9h-7a3 3 0 0 1-3-2.9V3c0-1.6 1.4-2.9 3-2.9h7zm-1.8 4.7h-3.4v18h3.4v-18zM116.3 0h4.7v27.5h-4.7V13.9l-1.9 7h-4.6l-1.8-7v13.6h-4.7V0h4.7l4.2 13.3L116.3 0zM136.2 22.7v4.8h-12.9V0h12.9v4.7H128v6.6h6.5V16H128v6.7h8.2z" fill="#81B3D3"/></svg>